<svg xmlns="http://www.w3.org/2000/svg" width="127" height="111" viewBox="0 0 127 111">
  <defs>
    <style>
      .cls-1 {
        fill: #fff;
        fill-rule: evenodd;
      }
    </style>
  </defs>
  <path id="delivery.svg" class="cls-1" d="M128,109a4,4,0,0,1-4,4h-6.2a17.478,17.478,0,0,0-34.6,0H83a4,4,0,0,1-4-4V58a4,4,0,0,1,4-4h23a4,4,0,0,1,4,4,235.59,235.59,0,0,1,16.665,20.551C128.648,81.349,128,109,128,109ZM107,64H93V83h26ZM70,113H58.8a17.478,17.478,0,0,0-34.6,0H14a4,4,0,0,1-4-4V68.837A31,31,0,1,1,62.929,45H70a4,4,0,0,1,4,4v60A4,4,0,0,1,70,113ZM31.5,22A24.5,24.5,0,1,0,56,46.5,24.5,24.5,0,0,0,31.5,22ZM42.657,58.071a2,2,0,0,1-2.828,0L31.958,51A3.985,3.985,0,0,1,30,43.555V30a2,2,0,0,1,4,0V43.555a3.981,3.981,0,0,1,1.994,3.4l7.077,7.872a2,2,0,0,1,0,2.828ZM42,105a11,11,0,1,1-11,11A11,11,0,0,1,42,105Zm59,0a11,11,0,1,1-11,11A11,11,0,0,1,101,105Z" transform="translate(-1 -16)"/>
</svg>
